<svg xmlns:xlink="http://www.w3.org/1999/xlink" width="24" height="24" fill="none" xmlns="http://www.w3.org/2000/svg"><path fill-rule="evenodd" clip-rule="evenodd" d="M20 6H4a2 2 0 00-2 2v13c0 1.1.9 2 2 2h16a2 2 0 002-2V8a2 2 0 00-2-2zm0 1c.6 0 1 .4 1 1v13c0 .6-.4 1-1 1H4a1 1 0 01-1-1V8c0-.6.4-1 1-1h16z" fill="#000"/><path fill-rule="evenodd" clip-rule="evenodd" d="M15.4 1a2.6 2.6 0 00-1.9.8l-1 1.5-.8 2.9a16 16 0 003 .1c.5 0 1.1 0 1.7-.3l.5-.3A2.6 2.6 0 0015.4 1zm0 1A1.6 1.6 0 0117 3.9 1.6 1.6 0 0116 5c-.3.2-.8.3-1.4.3H13l.5-1.6c.2-.5.5-1 .8-1.2a1.6 1.6 0 011.1-.5z" fill="#000"/><path fill-rule="evenodd" clip-rule="evenodd" d="M8.6 1a2.6 2.6 0 00-1 5l1.7.3a12.5 12.5 0 003-.1c-.2-1-.5-2-.9-2.9-.2-.4-.5-1-1-1.5A2.5 2.5 0 008.7 1h-.1zm.1 1a1.6 1.6 0 011.1.5c.3.3.6.7.8 1.2l.5 1.6a14.2 14.2 0 01-1.6 0c-.6 0-1-.1-1.4-.3h-.4c-.4-.3-.6-.6-.7-1a1.6 1.6 0 011.6-2" fill="#000"/><path d="M2 14.5h20M12 6v17V6z" stroke="#000"/></svg>