<svg width="135" height="40" viewBox="0 0 135 40" fill="none" xmlns="http://www.w3.org/2000/svg"><mask id="a" style="mask-type:alpha" maskUnits="userSpaceOnUse" x="0" y="0" width="135" height="41"><path fill-rule="evenodd" clip-rule="evenodd" d="M130 40H5c-2.75 0-5-2.25-5-5V5c0-2.75 2.25-5 5-5h125c2.75 0 5 2.25 5 5v30c0 2.75-2.25 5-5 5Z" fill="#000"/></mask><g mask="url(#a)"><path d="M-5-5h145v50H-5V-5Z" fill="#000"/></g><mask id="b" style="mask-type:luminance" maskUnits="userSpaceOnUse" x="0" y="0" width="135" height="41"><path fill-rule="evenodd" clip-rule="evenodd" d="M130 0H5C2.25 0 0 2.25 0 5v30c0 2.75 2.25 5 5 5h125c2.75 0 5-2.25 5-5V5c0-2.75-2.25-5-5-5m0 .8c2.316 0 4.2 1.884 4.2 4.2v30c0 2.316-1.884 4.2-4.2 4.2H5A4.205 4.205 0 0 1 .8 35V5C.8 2.684 2.684.8 5 .8h125" fill="#fff"/></mask><g mask="url(#b)"><path d="M-5-5h145v50H-5V-5Z" fill="#A6A6A6"/></g><mask id="c" style="mask-type:alpha" maskUnits="userSpaceOnUse" x="41" y="6" width="7" height="8"><path fill-rule="evenodd" clip-rule="evenodd" d="M47.418 10.243c0 .838-.248 1.505-.745 2.003-.565.592-1.3.888-2.204.888-.866 0-1.603-.3-2.208-.9-.607-.6-.909-1.346-.909-2.234 0-.889.302-1.633.91-2.234.604-.6 1.341-.9 2.207-.9.43 0 .841.084 1.231.251.391.168.704.391.94.67l-.529.528c-.397-.474-.944-.712-1.642-.712-.632 0-1.178.222-1.639.666-.46.445-.69 1.021-.69 1.731 0 .71.23 1.286.69 1.73a2.278 2.278 0 0 0 1.64.666c.67 0 1.227-.223 1.675-.67.29-.29.458-.695.502-1.215H44.47v-.72h2.907c.028.156.042.306.042.452Z" fill="#000"/></mask><g mask="url(#c)"><path d="M36.352 1.866h16.066v16.268H36.352V1.866Z" fill="#fff"/></g><path d="M47.419 10.243c0 .838-.248 1.505-.745 2.003-.565.592-1.3.888-2.204.888-.866 0-1.603-.3-2.208-.9-.607-.6-.909-1.346-.909-2.234 0-.889.302-1.633.909-2.234.605-.6 1.342-.9 2.208-.9.429 0 .841.084 1.231.251.391.168.704.391.939.67l-.528.528c-.397-.474-.944-.712-1.642-.712-.632 0-1.178.222-1.639.666-.461.445-.691 1.021-.691 1.731 0 .71.23 1.286.691 1.73a2.278 2.278 0 0 0 1.639.666c.67 0 1.228-.223 1.676-.67.29-.29.458-.695.502-1.215H44.47v-.72h2.907c.028.156.042.306.042.452Z" stroke="#fff" stroke-width=".2"/><mask id="d" style="mask-type:alpha" maskUnits="userSpaceOnUse" x="48" y="7" width="5" height="7"><path fill-rule="evenodd" clip-rule="evenodd" d="M52.028 7.737h-2.732V9.64h2.463v.721h-2.463v1.902h2.732V13h-3.503V7h3.503v.737Z" fill="#000"/></mask><g mask="url(#d)"><path d="M43.525 2h13.503v16H43.525V2Z" fill="#fff"/></g><path d="M52.028 7.737h-2.732V9.64h2.463v.721h-2.463v1.902h2.732V13h-3.503V7h3.503v.737Z" stroke="#fff" stroke-width=".2"/><mask id="e" style="mask-type:alpha" maskUnits="userSpaceOnUse" x="52" y="7" width="5" height="7"><path fill-rule="evenodd" clip-rule="evenodd" d="M55.279 13h-.771V7.737h-1.676V7h4.123v.737h-1.676V13Z" fill="#000"/></mask><g mask="url(#e)"><path d="M47.832 2h14.123v16H47.832V2Z" fill="#fff"/></g><path d="M55.279 13h-.771V7.737h-1.676V7h4.123v.737h-1.676V13Z" stroke="#fff" stroke-width=".2"/><mask id="f" style="mask-type:alpha" maskUnits="userSpaceOnUse" x="59" y="7" width="2" height="7"><path fill-rule="evenodd" clip-rule="evenodd" d="M59.938 13h.771V7h-.771v6Z" fill="#000"/></mask><g mask="url(#f)"><path d="M54.938 2h10.771v16H54.938V2Z" fill="#fff"/></g><path d="M59.938 13h.771V7h-.771v6Z" stroke="#fff" stroke-width=".2"/><mask id="g" style="mask-type:alpha" maskUnits="userSpaceOnUse" x="61" y="7" width="5" height="7"><path fill-rule="evenodd" clip-rule="evenodd" d="M64.128 13h-.771V7.737H61.68V7h4.123v.737h-1.676V13Z" fill="#000"/></mask><g mask="url(#g)"><path d="M56.68 2h14.124v16H56.68V2Z" fill="#fff"/></g><path d="M64.128 13h-.771V7.737H61.68V7h4.123v.737h-1.676V13Z" stroke="#fff" stroke-width=".2"/><mask id="h" style="mask-type:luminance" maskUnits="userSpaceOnUse" x="68" y="6" width="7" height="8"><path fill-rule="evenodd" clip-rule="evenodd" d="M69.779 11.722a2.2 2.2 0 0 0 1.63.674c.642 0 1.186-.224 1.63-.674.444-.45.667-1.024.667-1.722s-.223-1.273-.667-1.722a2.203 2.203 0 0 0-1.63-.675c-.643 0-1.186.225-1.63.675-.443.45-.666 1.024-.666 1.722s.223 1.272.666 1.722Zm3.83.502c-.59.607-1.323.91-2.2.91-.877 0-1.61-.303-2.2-.91-.59-.606-.883-1.347-.883-2.224 0-.877.294-1.619.884-2.225.589-.606 1.322-.909 2.199-.909.872 0 1.603.304 2.196.913.592.61.888 1.35.888 2.221 0 .877-.295 1.618-.884 2.224Z" fill="#fff"/></mask><g mask="url(#h)"><path d="M63.326 1.866h16.167v16.268H63.326V1.866Z" fill="#fff"/></g><path d="m69.779 11.722-.071.07.07-.07Zm3.26-3.444-.071.07.07-.07Zm-3.26 0-.071-.07.07.07Zm3.83 3.946.072.07-.072-.07Zm-4.4 0 .073-.07-.072.07Zm0-4.449.073.07-.072-.07Zm4.396.004.072-.07-.072.07Zm-3.897 4.013a2.3 2.3 0 0 0 1.7.704v-.2a2.1 2.1 0 0 1-1.558-.644l-.142.14Zm1.7.704c.67 0 1.239-.234 1.702-.704l-.142-.14c-.425.43-.943.644-1.56.644v.2Zm1.702-.704c.465-.47.696-1.07.696-1.792h-.2c0 .675-.215 1.223-.638 1.652l.142.14ZM73.806 10c0-.721-.231-1.322-.696-1.792l-.142.14c.423.429.638.977.638 1.652h.2Zm-.696-1.792a2.303 2.303 0 0 0-1.701-.705v.2c.616 0 1.134.215 1.559.645l.142-.14Zm-1.701-.705c-.67 0-1.238.236-1.701.705l.142.14c.425-.43.942-.645 1.559-.645v-.2Zm-1.701.705c-.464.47-.695 1.07-.695 1.792h.2c0-.675.215-1.223.637-1.652l-.142-.14ZM69.013 10c0 .722.231 1.322.695 1.792l.142-.14c-.422-.43-.637-.977-.637-1.652h-.2Zm4.524 2.154c-.57.587-1.277.88-2.128.88v.2c.903 0 1.662-.313 2.272-.94l-.144-.14Zm-2.128.88c-.851 0-1.558-.293-2.127-.88l-.144.14c.609.627 1.368.94 2.27.94v-.2Zm-2.127-.88c-.572-.586-.856-1.302-.856-2.154h-.2c0 .902.303 1.668.912 2.294l.144-.14ZM68.426 10c0-.852.285-1.569.856-2.155l-.144-.14c-.609.626-.912 1.393-.912 2.295h.2Zm.856-2.155c.569-.586 1.276-.879 2.127-.879v-.2c-.903 0-1.662.313-2.27.94l.143.139Zm2.127-.879c.846 0 1.55.294 2.124.883l.144-.14c-.613-.629-1.37-.943-2.268-.943v.2Zm2.124.883c.574.59.86 1.304.86 2.151h.2c0-.897-.306-1.662-.916-2.29l-.144.139Zm.86 2.151c0 .852-.286 1.568-.856 2.154l.144.14c.608-.626.912-1.392.912-2.294h-.2Z" fill="#fff"/><mask id="i" style="mask-type:alpha" maskUnits="userSpaceOnUse" x="75" y="7" width="6" height="7"><path fill-rule="evenodd" clip-rule="evenodd" d="M75.575 13V7h.938l2.916 4.667h.034l-.034-1.156v-3.51h.772v6h-.805l-3.05-4.895h-.034l.034 1.157V13h-.771Z" fill="#000"/></mask><g mask="url(#i)"><path d="M70.575 2h14.626v16H70.575V2Z" fill="#fff"/></g><path d="M75.575 13V7h.938l2.916 4.667h.034l-.034-1.156v-3.51h.772v6h-.805l-3.05-4.895h-.034l.034 1.157V13h-.771Z" stroke="#fff" stroke-width=".2"/><mask id="j" style="mask-type:luminance" maskUnits="userSpaceOnUse" x="41" y="17" width="85" height="18"><path fill-rule="evenodd" clip-rule="evenodd" d="M106.936 30h1.865V17.5h-1.865V30Zm16.807-7.998-2.139 5.42h-.064l-2.22-5.42h-2.01l3.33 7.575-1.899 4.214h1.946l5.131-11.789h-2.075ZM113.16 28.58c-.61 0-1.463-.306-1.463-1.062 0-.964 1.062-1.335 1.979-1.335.819 0 1.206.178 1.704.418a2.262 2.262 0 0 1-2.22 1.98Zm.226-6.852c-1.351 0-2.75.596-3.329 1.914l1.656.692c.354-.692 1.013-.917 1.705-.917.965 0 1.946.58 1.962 1.608v.13c-.338-.194-1.062-.483-1.946-.483-1.786 0-3.603.981-3.603 2.814 0 1.673 1.464 2.751 3.104 2.751 1.254 0 1.947-.563 2.38-1.223h.065v.965h1.802v-4.793c0-2.219-1.658-3.458-3.796-3.458Zm-11.532 1.796H99.2V19.24h2.654c1.395 0 2.187 1.154 2.187 2.142 0 .97-.792 2.143-2.187 2.143Zm-.048-6.026h-4.471V30H99.2v-4.736h2.606c2.068 0 4.101-1.498 4.101-3.883s-2.033-3.883-4.101-3.883ZM77.425 28.582c-1.289 0-2.368-1.079-2.368-2.56 0-1.5 1.079-2.595 2.368-2.595 1.272 0 2.271 1.095 2.271 2.594 0 1.482-.999 2.561-2.271 2.561Zm2.142-5.88h-.064c-.419-.499-1.225-.95-2.239-.95-2.127 0-4.077 1.868-4.077 4.27 0 2.383 1.95 4.236 4.077 4.236 1.014 0 1.82-.45 2.239-.967h.064v.612c0 1.628-.87 2.497-2.271 2.497-1.144 0-1.853-.82-2.143-1.514l-1.627.677c.467 1.127 1.707 2.513 3.77 2.513 2.191 0 4.044-1.289 4.044-4.43v-7.637h-1.773v.693ZM82.629 30h1.868V17.5h-1.868V30Zm4.623-4.124c-.048-1.644 1.273-2.48 2.223-2.48.742 0 1.37.37 1.58.901l-3.803 1.58Zm5.8-1.418c-.355-.95-1.434-2.707-3.641-2.707-2.191 0-4.012 1.724-4.012 4.254 0 2.384 1.805 4.253 4.221 4.253 1.949 0 3.077-1.192 3.545-1.885l-1.45-.967c-.484.71-1.144 1.176-2.095 1.176-.95 0-1.627-.435-2.061-1.289l5.686-2.352-.193-.483Zm-45.308-1.4v1.803h4.317c-.128 1.015-.467 1.756-.982 2.271-.629.63-1.612 1.322-3.335 1.322-2.659 0-4.737-2.143-4.737-4.8 0-2.659 2.078-4.803 4.737-4.803 1.434 0 2.481.564 3.254 1.29l1.273-1.273c-1.08-1.03-2.513-1.82-4.527-1.82-3.642 0-6.703 2.964-6.703 6.605 0 3.64 3.061 6.605 6.703 6.605 1.965 0 3.447-.645 4.607-1.853 1.192-1.192 1.563-2.868 1.563-4.22a5.84 5.84 0 0 0-.097-1.128h-6.073Zm11.078 5.524c-1.288 0-2.4-1.063-2.4-2.577 0-1.53 1.112-2.578 2.4-2.578 1.289 0 2.401 1.047 2.401 2.578 0 1.514-1.112 2.577-2.401 2.577Zm0-6.83c-2.352 0-4.269 1.788-4.269 4.253 0 2.45 1.917 4.253 4.269 4.253 2.353 0 4.27-1.804 4.27-4.253 0-2.465-1.917-4.254-4.27-4.254Zm9.314 6.83c-1.289 0-2.401-1.063-2.401-2.577 0-1.53 1.112-2.578 2.401-2.578 1.289 0 2.4 1.047 2.4 2.578 0 1.514-1.111 2.577-2.4 2.577Zm0-6.83c-2.352 0-4.269 1.788-4.269 4.253 0 2.45 1.917 4.253 4.269 4.253 2.352 0 4.269-1.804 4.269-4.253 0-2.465-1.917-4.254-4.269-4.254Z" fill="#fff"/></mask><g mask="url(#j)"><path d="M36.041 12.047h94.777v27.03H36.041v-27.03Z" fill="#fff"/></g><mask id="k" style="mask-type:alpha" maskUnits="userSpaceOnUse" x="9" y="7" width="14" height="26"><path fill-rule="evenodd" clip-rule="evenodd" d="M10.436 7.538c-.291.308-.463.786-.463 1.405V31.06c0 .62.172 1.097.463 1.404l.073.073 12.39-12.389v-.292l-12.39-12.39-.073.073Z" fill="#000"/></mask><g mask="url(#k)"><path d="M0 0h135v40H0V0Z" fill="url(#l)" opacity=".01"/><path d="M0 0h135v40H0V0Z" fill="url(#m)"/></g><mask id="n" style="mask-type:alpha" maskUnits="userSpaceOnUse" x="22" y="15" width="12" height="10"><path fill-rule="evenodd" clip-rule="evenodd" d="M22.899 19.855v.292l4.129 4.131.094-.052 4.893-2.78c1.397-.795 1.397-2.095 0-2.889l-4.893-2.78-.093-.053-4.13 4.131Z" fill="#000"/></mask><g mask="url(#n)"><path d="M0 0h135v40H0V0Z" fill="url(#o)" opacity=".01"/><path d="M0 0h135v40H0V0Z" fill="url(#p)"/></g><mask id="q" style="mask-type:alpha" maskUnits="userSpaceOnUse" x="10" y="20" width="18" height="13"><path fill-rule="evenodd" clip-rule="evenodd" d="M10.436 32.463c.46.488 1.221.55 2.078.062l14.608-8.3-4.223-4.224-12.463 12.462Z" fill="#000"/></mask><g mask="url(#q)"><path d="M0 0h135v40H0V0Z" fill="url(#r)" opacity=".01"/><path d="M0 0h135v40H0V0Z" fill="url(#s)"/></g><mask id="t" style="mask-type:alpha" maskUnits="userSpaceOnUse" x="10" y="7" width="18" height="14"><path fill-rule="evenodd" clip-rule="evenodd" d="m10.436 7.538 12.463 12.463 4.223-4.224-14.608-8.3c-.402-.229-.783-.337-1.121-.337-.384 0-.713.14-.957.398" fill="#000"/></mask><g mask="url(#t)"><path d="M0 0h135v40H0V0Z" fill="url(#u)" opacity=".01"/><path d="M0 0h135v40H0V0Z" fill="url(#v)"/></g><mask id="w" style="mask-type:alpha" maskUnits="userSpaceOnUse" x="10" y="24" width="18" height="9"><path fill-rule="evenodd" clip-rule="evenodd" d="M27.029 24.132 12.514 32.38c-.812.46-1.538.43-2.004.01l-.074.075.073.072h.001c.466.42 1.192.45 2.004-.01l14.608-8.302-.093-.093Z" fill="#000"/></mask><g mask="url(#w)"><path d="M5.436 19.132h26.686v18.73H5.436v-18.73Z" fill="#000"/></g><mask id="x" style="mask-type:alpha" maskUnits="userSpaceOnUse" x="9" y="30" width="2" height="3"><path fill-rule="evenodd" clip-rule="evenodd" d="M10.435 32.318c-.291-.308-.463-.786-.463-1.405v.146c0 .62.172 1.097.463 1.405l.074-.074-.074-.072Z" fill="#000"/></mask><g mask="url(#x)"><path d="M4.972 25.913h10.537v11.551H4.972v-11.55Z" fill="#000"/></g><mask id="y" style="mask-type:alpha" maskUnits="userSpaceOnUse" x="27" y="20" width="7" height="5"><path fill-rule="evenodd" clip-rule="evenodd" d="m32.015 21.3-4.986 2.832.093.093 4.893-2.78c.7-.397 1.048-.92 1.048-1.443-.059.473-.414.937-1.048 1.297Z" fill="#000"/></mask><g mask="url(#y)"><path d="M22.03 15.002h16.033v14.223H22.03V15.002Z" fill="#000"/></g><mask id="z" style="mask-type:alpha" maskUnits="userSpaceOnUse" x="9" y="7" width="25" height="14"><path fill-rule="evenodd" clip-rule="evenodd" d="m12.514 7.624 19.5 11.08c.635.36.99.824 1.049 1.298 0-.523-.35-1.047-1.048-1.444L12.514 7.478c-1.398-.794-2.541-.134-2.541 1.466v.146c0-1.6 1.143-2.26 2.54-1.466Z" fill="#000"/></mask><g mask="url(#z)"><path d="M4.973 2.141h33.09v22.86H4.973V2.142Z" fill="#fff"/></g><defs><linearGradient id="l" x1="-1718.03" y1="7.465" x2="-1718.03" y2="1031.47" gradientUnits="userSpaceOnUse"><stop/><stop offset="0" stop-color="#00A0FF"/><stop offset=".1" stop-color="#00ABFF"/><stop offset=".2" stop-color="#00B7FF"/><stop offset=".3" stop-color="#00C1FF"/><stop offset=".4" stop-color="#00C9FF"/><stop offset=".5" stop-color="#00D1FF"/><stop offset=".6" stop-color="#00D7FF"/><stop offset=".7" stop-color="#00DCFF"/><stop offset=".8" stop-color="#00E0FF"/><stop offset=".9" stop-color="#00E1FF"/><stop offset="1" stop-color="#00E3FF"/><stop offset="1"/></linearGradient><linearGradient id="m" x1="-6.531" y1="6.216" x2="-8.125" y2="24.34" gradientUnits="userSpaceOnUse"><stop stop-color="#00A0FF"/><stop offset=".1" stop-color="#00ABFF"/><stop offset=".2" stop-color="#00B7FF"/><stop offset=".3" stop-color="#00C1FF"/><stop offset=".4" stop-color="#00C9FF"/><stop offset=".5" stop-color="#00D1FF"/><stop offset=".6" stop-color="#00D7FF"/><stop offset=".7" stop-color="#00DCFF"/><stop offset=".8" stop-color="#00E0FF"/><stop offset=".9" stop-color="#00E1FF"/><stop offset="1" stop-color="#00E3FF"/></linearGradient><linearGradient id="o" x1="-1705.1" y1="15.724" x2="-1705.1" y2="1039.72" gradientUnits="userSpaceOnUse"><stop/><stop offset="0" stop-color="#FFE000"/><stop offset=".1" stop-color="gold"/><stop offset=".2" stop-color="#FFCF00"/><stop offset=".3" stop-color="#FFC600"/><stop offset=".4" stop-color="#FFBE00"/><stop offset=".5" stop-color="#FFB700"/><stop offset=".6" stop-color="#FFB100"/><stop offset=".7" stop-color="#FA0"/><stop offset=".8" stop-color="#FFA400"/><stop offset=".9" stop-color="#FFA000"/><stop offset="1" stop-color="#FF9C00"/><stop offset="1"/></linearGradient><linearGradient id="p" x1="33.844" y1="16.413" x2="9.621" y2="16.413" gradientUnits="userSpaceOnUse"><stop stop-color="#FFE000"/><stop offset=".1" stop-color="gold"/><stop offset=".2" stop-color="#FFCF00"/><stop offset=".3" stop-color="#FFC600"/><stop offset=".4" stop-color="#FFBE00"/><stop offset=".5" stop-color="#FFB700"/><stop offset=".6" stop-color="#FFB100"/><stop offset=".7" stop-color="#FA0"/><stop offset=".8" stop-color="#FFA400"/><stop offset=".9" stop-color="#FFA000"/><stop offset="1" stop-color="#FF9C00"/></linearGradient><linearGradient id="r" x1="-1717.56" y1="20.001" x2="-1717.56" y2="1044" gradientUnits="userSpaceOnUse"><stop/><stop offset="0" stop-color="#FF3A44"/><stop offset=".1" stop-color="#F93647"/><stop offset=".2" stop-color="#F3324A"/><stop offset=".3" stop-color="#ED2E4D"/><stop offset=".4" stop-color="#E72A50"/><stop offset=".5" stop-color="#E12653"/><stop offset=".6" stop-color="#DB2156"/><stop offset=".7" stop-color="#D51D59"/><stop offset=".8" stop-color="#CF195C"/><stop offset=".9" stop-color="#C9155F"/><stop offset="1" stop-color="#C31162"/><stop offset="1"/></linearGradient><linearGradient id="s" x1="-13.551" y1="18.929" x2="-15.708" y2="43.479" gradientUnits="userSpaceOnUse"><stop stop-color="#FF3A44"/><stop offset=".1" stop-color="#F93647"/><stop offset=".2" stop-color="#F3324A"/><stop offset=".3" stop-color="#ED2E4D"/><stop offset=".4" stop-color="#E72A50"/><stop offset=".5" stop-color="#E12653"/><stop offset=".6" stop-color="#DB2156"/><stop offset=".7" stop-color="#D51D59"/><stop offset=".8" stop-color="#CF195C"/><stop offset=".9" stop-color="#C9155F"/><stop offset="1" stop-color="#C31162"/></linearGradient><linearGradient id="u" x1="-1717.56" y1="7.14" x2="-1717.56" y2="1031.14" gradientUnits="userSpaceOnUse"><stop/><stop offset="0" stop-color="#32A071"/><stop offset=".1" stop-color="#2BAA71"/><stop offset=".2" stop-color="#25B472"/><stop offset=".3" stop-color="#20BD73"/><stop offset=".4" stop-color="#1AC773"/><stop offset=".5" stop-color="#14D174"/><stop offset=".6" stop-color="#0FD874"/><stop offset=".7" stop-color="#0BDF75"/><stop offset=".8" stop-color="#06E775"/><stop offset=".9" stop-color="#03EB75"/><stop offset="1" stop-color="#00F076"/><stop offset="1"/></linearGradient><linearGradient id="v" x1="-9.832" y1="1.694" x2="-8.869" y2="12.657" gradientUnits="userSpaceOnUse"><stop stop-color="#32A071"/><stop offset=".1" stop-color="#2BAA71"/><stop offset=".2" stop-color="#25B472"/><stop offset=".3" stop-color="#20BD73"/><stop offset=".4" stop-color="#1AC773"/><stop offset=".5" stop-color="#14D174"/><stop offset=".6" stop-color="#0FD874"/><stop offset=".7" stop-color="#0BDF75"/><stop offset=".8" stop-color="#06E775"/><stop offset=".9" stop-color="#03EB75"/><stop offset="1" stop-color="#00F076"/></linearGradient></defs></svg>