<svg xmlns:xlink="http://www.w3.org/1999/xlink" width="24" height="24" fill="none" xmlns="http://www.w3.org/2000/svg"><path d="M8.3 21a6.6 6.6 0 01-2.2-.5 4.4 4.4 0 01-1.6-1 4.4 4.4 0 01-1-1.6 6.5 6.5 0 01-.4-2.2L3 12V8.3A6.6 6.6 0 013.6 6c.2-.6.6-1.1 1-1.6.5-.4 1-.8 1.6-1A6.5 6.5 0 018.3 3h7.4a6.6 6.6 0 012.2.5c.6.2 1.1.6 1.6 1 .4.5.8 1 1 1.6a6.5 6.5 0 01.4 2.2L21 12v3.7a6.5 6.5 0 01-.5 2.2 4.4 4.4 0 01-1 1.6 5.4 5.4 0 01-3.8 1.4 60 60 0 01-7.4 0zm0-16a4.6 4.6 0 00-1.5.3L6 6l-.6 1a4.6 4.6 0 00-.2 1.5V9a84.8 84.8 0 00.2 8.2l.6.9 1 .6a4.7 4.7 0 001.5.2l3.6.1h3.6a4.6 4.6 0 001.6-.3 2.4 2.4 0 00.9-.6l.6-1 .2-1.5V8.4a4.6 4.6 0 00-.2-1.6A2.4 2.4 0 0018 6a2.5 2.5 0 00-1-.6 4.6 4.6 0 00-1.5-.2H15a83.4 83.4 0 00-6.6 0zM8 12a4 4 0 118 0 4 4 0 01-8 0zm2 0a2 2 0 104 0 2 2 0 00-4 0zm5.5-4.5a1 1 0 112 0 1 1 0 01-2 0z" fill="#000"/></svg>