<svg xmlns:xlink="http://www.w3.org/1999/xlink" width="142" height="40" fill="none" xmlns="http://www.w3.org/2000/svg"><g clip-path="url(#a)"><path d="M139.4 22.6c-1.1-.9-2.4-1.2-3.7-1.6h-.1c-1.3-.4-2-.7-2.6-1.1-.5-.5-.7-1-.8-2a3 3 0 01.2-1 2.6 2.6 0 01.5-1l1-.7a3.9 3.9 0 011.5-.2c.5 0 .9 0 1.3.2.4.1.7.3 1 .6.2.2.4.5.5.9.2.3.2.8.2 1.3v.8h2.5v-.9a5.3 5.3 0 00-5.5-5.3 6 6 0 00-3.8 1.3 5.2 5.2 0 00-1.8 4.1c0 1.7.6 3 1.7 3.8 1 .8 2.4 1.2 3.7 1.6 1.4.3 2.3.8 3 1.3.5.6.7 1.3.8 2.3v.2c0 .4-.1.9-.3 1.3a3.4 3.4 0 01-.7 1.1c-.3.4-.7.6-1.1.8a3.9 3.9 0 01-1.5.3c-1.1 0-2-.4-2.8-1-.6-.7-1-1.6-1-2.8v-.8h-2.4v1c0 .8 0 1.5.3 2.2a5.6 5.6 0 001.1 1.8 6.2 6.2 0 002.2 1.4 6.9 6.9 0 002.6.6 6.2 6.2 0 002.4-.5 6 6 0 002-1.4 5.7 5.7 0 001.3-2l.3-2.4c-.1-1.9-.8-3.3-2-4.2zM128.9 3h-3.2l2.6 1.9-1 3L130 6l2.5 2-1-3.1L134 3h-3l-1-3-1 3zm-9.5 25.7L113 12.6h-2.6l.6 1.7 3.6 9L118 32l-3.5 8.1h2.7l11-25.6.7-1.8H126l-6.7 16zM95.2 17.2c1-.8 1.7-1.3 2.6-1.7a9 9 0 013-.5 7.8 7.8 0 014 1.1 7.1 7.1 0 013 3.7l.3.6h2.6l-.4-1.1c-.8-2.3-2.2-4-4.2-5.2a10.7 10.7 0 00-5.4-1.5c-2.8 0-5.3 1-7.2 3-2 1.8-3 4.4-3 7.3A10.1 10.1 0 00101 33c2.1 0 4.1-.7 5.8-1.8a9.7 9.7 0 003.6-4.7l.4-1.2H108l-.1.6a6.8 6.8 0 01-2.4 3.1 8 8 0 01-4.8 1.6 8 8 0 01-3-.6 7.6 7.6 0 01-2.4-1.6 7.4 7.4 0 01-1.7-2.5 8.3 8.3 0 01-.6-3.2c0-1 .2-2.2.6-3.2.4-1 1-1.8 1.6-2.4zm-9.5 7c0 .4-.2.9-.4 1.3a7.7 7.7 0 01-2.7 3.8 7.5 7.5 0 01-4.4 1.4c-2.4 0-4.4-.9-5.9-2.5a8.3 8.3 0 01.2-11 7.7 7.7 0 015.6-2.2c1.6 0 3 .4 4.4 1.3a7.4 7.4 0 012.8 3.5 6.8 6.8 0 01.5 2.8v1.5zm0-11.6v3.3a9.4 9.4 0 00-1.8-1.5 10.3 10.3 0 00-5.8-1.8 9.8 9.8 0 00-7.6 3.3 10.6 10.6 0 000 13.9A9.8 9.8 0 0078 33c2 0 3.8-.5 5.3-1.5a9.4 9.4 0 002.3-2V33H88V12.6h-2.4zm-22.5 2a6.5 6.5 0 00-2.4-1.5 8.9 8.9 0 00-6.2.1 7.3 7.3 0 00-2.6 1.9 7.2 7.2 0 00-.7 1l-.7-1a6.6 6.6 0 00-2.5-1.9 8.5 8.5 0 00-6.5 0 7 7 0 00-2.1 1.6v-2.2H37V33h2.4V21.6c0-1.2.1-2 .4-2.9a5.6 5.6 0 011.1-2c.4-.6 1-1 1.6-1.3.7-.3 1.5-.5 2.1-.4 1 0 1.8.2 2.5.5s1.3.8 1.7 1.3c.4.6.7 1 .8 1.6.2.8.3 1.6.3 2.8V33h2.5V21.7c0-1.2 0-2.2.2-3l1-2c.5-.5 1.1-1 1.9-1.3 1.4-.6 3.2-.5 4.3 0a4 4 0 011.5.9 5 5 0 011.2 2c.3 1 .4 2.1.4 3.4v11.4h2.5V21.7c0-1.5-.2-3-.6-4.1-.4-1.2-1-2.2-1.7-3z" fill="#000"/><path d="M17.3 0l-4 12.6H0l10.7 7.8-4 12.6 10.6-7.8L28 33.1l-4-12.7 10.6-7.8H21.4L17.4 0z" fill="#E01A2B"/></g><defs><clipPath id="a"><path fill="#fff" d="M0 0h141.4v40H0z"/></clipPath></defs></svg>