<svg xmlns:xlink="http://www.w3.org/1999/xlink" width="24" height="24" fill="none" xmlns="http://www.w3.org/2000/svg"><path d="M10.9 14.8l-.2.6-.6 2.1a9.4 9.4 0 01-1.5 3l-.3.4-.2.1v-.2L7.8 19a12.8 12.8 0 01.5-3.7l1-3.9a.6.6 0 000-.3 3.8 3.8 0 010-3A1.8 1.8 0 0111 7a1.3 1.3 0 011.4 1.2 4.4 4.4 0 01-.2 1.8l-.6 2.1a1.7 1.7 0 002.1 2.1 2.8 2.8 0 001.6-1.2 6.5 6.5 0 001-2.9 6.5 6.5 0 000-2.1 3.6 3.6 0 00-2.7-3 5.3 5.3 0 00-4.3.5A4.7 4.7 0 007 9.1a3.6 3.6 0 00.3 2.1l.4.6a.6.6 0 01.1.5l-.2.8a.4.4 0 01-.5.3 3 3 0 01-1.7-1.8A5.9 5.9 0 016.2 6a6.8 6.8 0 014.7-2.9 7.7 7.7 0 014.2.4A5.9 5.9 0 0119 7.9a7 7 0 010 2.4 7.7 7.7 0 01-1.3 3.5A5 5 0 0114 16a3.4 3.4 0 01-2.9-.8 1.8 1.8 0 01-.2-.2l-.2-.2" fill="#000"/></svg>